<svg viewBox="0 0 200 150" xmlns="http://www.w3.org/2000/svg" fill="#D4AF37">
  <!-- Center circle -->
  <circle cx="100" cy="70" r="5" />
  
  <!-- Center droplet -->
  <path d="M 100 78 C 96 88, 96 92, 100 105 C 104 92, 104 88, 100 78 Z" />
  
  <!-- Left wing -->
  <path d="M 91 73 C 78 50, 72 25, 80 15 C 65 30, 75 55, 91 73 Z" />
  <path d="M 91 82 C 75 62, 60 40, 68 30 C 50 45, 65 65, 91 82 Z" />
  <path d="M 91 91 C 72 75, 52 55, 60 45 C 40 60, 58 75, 91 91 Z" />
  <path d="M 91 100 C 72 88, 48 70, 58 62 C 35 75, 55 88, 91 100 Z" />
  <path d="M 91 109 C 75 102, 45 88, 55 80 C 35 90, 55 100, 91 109 Z" />

  <!-- Right wing -->
  <path d="M 109 73 C 122 50, 128 25, 120 15 C 135 30, 125 55, 109 73 Z" />
  <path d="M 109 82 C 125 62, 140 40, 132 30 C 150 45, 135 65, 109 82 Z" />
  <path d="M 109 91 C 128 75, 148 55, 140 45 C 160 60, 142 75, 109 91 Z" />
  <path d="M 109 100 C 128 88, 152 70, 142 62 C 165 75, 145 88, 109 100 Z" />
  <path d="M 109 109 C 125 102, 155 88, 145 80 C 165 90, 145 100, 109 109 Z" />
</svg>
